<svg width="141" height="105" viewBox="0 0 141 105" fill="none" xmlns="http://www.w3.org/2000/svg">
<path d="M111.053 54.0162L110.401 53.566C110.401 53.566 110.198 53.8593 109.847 54.3923L110.507 54.8286C110.855 54.3069 111.053 54.0162 111.053 54.0162Z" fill="#3A3E59" fill-opacity="0.3"/>
<path d="M113.351 86.7837C113.497 86.0174 113.421 85.2858 113.126 84.6065L112.403 84.9247C112.633 85.4515 112.691 86.0246 112.578 86.6313L113.351 86.7837ZM112.733 88.377L112.049 87.9788C111.755 88.4843 111.359 88.9744 110.881 89.435L111.429 90.0064C111.963 89.497 112.403 88.9458 112.733 88.377ZM110.142 91.0447L109.699 90.3899C109.175 90.7451 108.609 91.05 108.024 91.2914L108.328 92.0231C108.964 91.7605 109.572 91.4273 110.142 91.0447ZM112.093 83.2098C111.844 82.9836 111.562 82.772 111.246 82.5748C110.938 82.3799 110.614 82.2217 110.283 82.1024L110.011 82.8464C110.29 82.9493 110.567 83.0847 110.827 83.2481C111.101 83.4199 111.35 83.6047 111.563 83.7991L112.093 83.2098ZM106.758 92.5308L106.579 91.7589C105.946 91.9063 105.315 91.9761 104.71 91.9665L104.696 92.7575C105.367 92.7707 106.063 92.6921 106.758 92.5308ZM108.591 82.5764L108.613 81.784C107.969 81.7665 107.293 81.8472 106.547 82.0383L106.74 82.8061C107.418 82.6353 108.021 82.5611 108.591 82.5764ZM103.035 92.5453L103.232 91.7779C103.132 91.7512 103.029 91.7234 102.927 91.6918C102.432 91.5385 101.965 91.3233 101.533 91.0447L101.107 91.7119C101.598 92.0255 102.134 92.2743 102.693 92.4475C102.806 92.4826 102.921 92.5139 103.035 92.5453ZM105.282 83.2864L104.993 82.5507C104.427 82.773 103.825 83.0461 103.154 83.3807L103.507 84.0863C104.158 83.7621 104.74 83.4994 105.282 83.2864ZM102.116 84.8191L101.735 84.1254C101.171 84.4352 100.592 84.7654 99.9977 85.1071L100.394 85.793C100.98 85.4527 101.553 85.1252 102.116 84.8191ZM100.386 90.0971C99.9736 89.663 99.6061 89.1516 99.2836 88.5755L98.5924 88.9618C98.9463 89.5974 99.355 90.1629 99.8107 90.6436L100.386 90.0971ZM109.65 56.1536L108.983 55.7275C108.669 56.2184 108.311 56.7865 107.923 57.4116L108.597 57.8276C108.98 57.2051 109.332 56.6434 109.65 56.1536ZM107.764 59.1804L107.087 58.772C106.762 59.3131 106.42 59.8822 106.069 60.4815L106.753 60.8797C107.102 60.288 107.44 59.7178 107.764 59.1804ZM99.0209 86.5893L98.6235 85.9072C98.5173 85.9695 98.411 86.0318 98.3009 86.093C98.2383 85.8541 98.1867 85.6062 98.145 85.3531L97.3645 85.4799C97.4191 85.8115 97.4924 86.1365 97.5791 86.4449C97.5857 86.4636 97.5912 86.486 97.5978 86.5046C97.3705 86.6371 97.1393 86.7684 96.9093 86.8959L97.3006 87.5844C97.4823 87.4792 97.6628 87.3777 97.8444 87.2725C97.8658 87.3371 97.8922 87.3991 97.9136 87.4637L98.6534 87.1877C98.6149 87.0847 98.5776 86.9779 98.5403 86.8711C98.7021 86.7763 98.8602 86.6803 99.0209 86.5893ZM105.963 62.2541L105.276 61.8634C104.957 62.427 104.633 63.0057 104.306 63.6044L105 63.985C105.322 63.3888 105.645 62.8139 105.963 62.2541ZM104.247 65.3748L103.549 65.0056C103.242 65.5852 102.934 66.1773 102.633 66.7755L103.338 67.1308C103.638 66.5363 103.944 65.9518 104.247 65.3748ZM98.0162 83.8307C98.0071 83.2316 98.0421 82.5841 98.1213 81.9005L97.3374 81.8109C97.2564 82.527 97.2196 83.2072 97.2306 83.84L98.0162 83.8307ZM102.638 68.5495L101.925 68.2044C101.636 68.8024 101.35 69.4053 101.076 70.0079L101.795 70.3341C102.072 69.7364 102.352 69.1399 102.638 68.5495ZM101.157 71.7803L100.43 71.468C100.163 72.0893 99.908 72.7103 99.667 73.3147L100.401 73.6043C100.64 73.0074 100.892 72.394 101.157 71.7803ZM95.9021 88.3562L95.5256 87.6599C94.9084 87.9946 94.3393 88.2945 93.7772 88.5718L94.1301 89.2774C94.6972 88.9975 95.2788 88.6973 95.9021 88.3562ZM98.3537 80.3616C98.4683 79.7511 98.6172 79.1099 98.7871 78.4544L98.0209 78.2543C97.8451 78.9287 97.6953 79.5862 97.5749 80.2156L98.3537 80.3616ZM99.8486 75.0812L99.1034 74.8131C98.8707 75.4574 98.6555 76.0988 98.4659 76.7109L99.2215 76.945C99.4088 76.3405 99.6232 75.7153 99.8486 75.0812ZM92.6849 89.9726L92.3568 89.2539C91.7397 89.5349 91.1308 89.7893 90.5502 90.0194L90.835 90.7578C91.4293 90.5236 92.053 90.2613 92.6849 89.9726ZM89.3226 91.2955L89.0751 90.5439C88.4439 90.75 87.8122 90.9312 87.2023 91.0818L87.3902 91.8523C88.0224 91.6961 88.6716 91.5121 89.3226 91.2955ZM85.8107 92.1788L85.679 91.4009C85.032 91.511 84.3869 91.5886 83.751 91.636L83.8092 92.4242C84.4662 92.3752 85.1414 92.2944 85.8107 92.1788ZM82.1913 92.4738L82.2006 91.6816C81.5562 91.6766 80.9072 91.6329 80.2675 91.559L80.1729 92.3455C80.8414 92.42 81.5192 92.4644 82.1913 92.4738ZM78.576 92.0868L78.7333 91.3115C78.1339 91.188 77.5275 91.0333 76.9306 90.8483L76.855 90.8249L76.6171 91.5794L76.6965 91.604C77.3199 91.7971 77.9527 91.96 78.576 92.0868ZM75.3938 90.3019C74.8044 90.0655 74.2093 89.7942 73.6187 89.4953L73.2596 90.1998C73.868 90.5084 74.4846 90.7905 75.0966 91.0339L75.3938 90.3019ZM72.2489 88.7438C71.6737 88.4083 71.1157 88.0574 70.5891 87.7121L70.1528 88.372C70.6922 88.7295 71.2615 89.084 71.8506 89.428L72.2489 88.7438ZM69.3063 86.8136C68.7737 86.4209 68.2632 86.0102 67.7827 85.5963L67.2662 86.1941C67.7595 86.6202 68.2877 87.0406 68.8331 87.4456L69.3063 86.8136ZM66.6429 84.5434C66.1802 84.0854 65.7371 83.6044 65.3288 83.1177L64.7241 83.626C65.1477 84.1299 65.6063 84.6281 66.0881 85.1045L66.6429 84.5434ZM64.3793 81.8918C64.0066 81.3706 63.6546 80.8226 63.3322 80.2589L62.6475 80.6514C62.9803 81.2348 63.3465 81.8038 63.7372 82.3472L64.3793 81.8918ZM62.611 78.8843C62.3399 78.3159 62.0831 77.7145 61.8484 77.0952L61.1074 77.3751C61.3488 78.013 61.6148 78.6379 61.8964 79.2261L62.611 78.8843ZM61.344 75.6222C61.1561 75.0256 60.9837 74.3925 60.8221 73.7379L60.0554 73.9269C60.2211 74.5952 60.4001 75.247 60.5921 75.8572L61.344 75.6222ZM60.4803 72.2075C60.3585 71.5983 60.237 70.9478 60.1275 70.272L59.347 70.3988C59.4579 71.0833 59.5797 71.7463 59.7079 72.3616L60.4803 72.2075ZM59.8902 68.7119C59.8015 68.0757 59.7187 67.4207 59.6394 66.7543L58.8532 66.8461C58.9339 67.5213 59.0167 68.1763 59.1068 68.8212L59.8902 68.7119ZM59.4633 65.1841C59.3932 64.5413 59.3317 63.8845 59.2661 63.214L58.4807 63.2896C58.5452 63.9638 58.6105 64.6218 58.6805 65.2646L59.4633 65.1841ZM59.1161 61.6395L58.9363 59.6666L58.1483 59.7372L58.3281 61.7102L59.1161 61.6395ZM58.7898 58.0808C58.7297 57.4327 58.6681 56.7759 58.6063 56.1067L57.8172 56.1811C57.8828 56.8515 57.9443 57.5083 58.0007 58.1552L58.7898 58.0808ZM58.4499 54.5261C58.3848 53.8806 58.3157 53.2215 58.2463 52.5499L57.4586 52.633C57.5292 53.3009 57.5995 53.9562 57.6646 54.6016L58.4499 54.5261ZM58.0725 50.9722C57.9998 50.3244 57.922 49.6667 57.8389 48.9991L57.0553 49.0959C57.1395 49.7597 57.2174 50.4174 57.2912 51.0614L58.0725 50.9722ZM57.6351 47.4245C57.55 46.777 57.4584 46.1234 57.3629 45.456L56.5783 45.5691C56.6751 46.2327 56.7628 46.8851 56.8491 47.5289L57.6351 47.4245ZM57.1303 43.8808C57.0326 43.2336 56.9286 42.5802 56.8193 41.9169L56.0388 42.0437C56.1493 42.7032 56.2495 43.3554 56.3483 43.9989L57.1303 43.8808ZM56.5556 40.3486C56.4443 39.7054 56.3278 39.0523 56.2048 38.3931L55.4272 38.5373C55.5501 39.1966 55.6641 39.8447 55.7766 40.4841L56.5556 40.3486ZM55.905 36.8343C55.7812 36.1914 55.6472 35.5412 55.5106 34.886L54.7359 35.0477C54.8725 35.7029 55.0038 36.3481 55.1289 36.9873L55.905 36.8343ZM55.1771 33.3292C55.0358 32.6891 54.8919 32.0441 54.739 31.388L53.9671 31.5672C54.1174 32.2183 54.2625 32.8595 54.4038 33.4996L55.1771 33.3292ZM54.3656 29.8396C54.2002 29.1838 54.0249 28.5332 53.8403 27.9128L53.0805 28.133C53.2588 28.7472 53.4338 29.3853 53.5978 30.0324L54.3656 29.8396ZM53.3697 26.384C53.1595 25.7391 52.9371 25.1071 52.7076 24.4976L51.9667 24.7775C52.1921 25.3732 52.4119 26.0003 52.6181 26.6315L53.3697 26.384ZM52.1128 23.009C51.8467 22.3841 51.5696 21.7682 51.2831 21.1825L50.5711 21.5293C50.8498 22.1001 51.1229 22.7023 51.3811 23.3124L52.1128 23.009ZM50.5445 19.757C50.219 19.1634 49.8738 18.5803 49.518 18.0311L48.8515 18.4582C49.1945 18.9951 49.5331 19.5597 49.8507 20.1384L50.5445 19.757ZM48.6126 16.703C48.2117 16.1523 47.7925 15.6207 47.3627 15.1232L46.7644 15.6377C47.1776 16.1218 47.5864 16.6336 47.9757 17.1682L48.6126 16.703ZM46.2689 13.9355C45.7894 13.4515 45.2892 12.9943 44.7834 12.5684L44.2759 13.1773C44.7663 13.586 45.2462 14.0286 45.7077 14.4905L46.2689 13.9355ZM43.4986 11.5825C42.9486 11.1926 42.3703 10.8271 41.7878 10.5018L41.3997 11.1932C41.9607 11.5077 42.5111 11.8563 43.0408 12.2316L43.4986 11.5825ZM40.3421 9.76819C39.7319 9.49221 39.101 9.24295 38.4607 9.02392L38.2077 9.77374C38.8227 9.98081 39.4321 10.2193 40.0159 10.4871L40.3421 9.76819ZM36.7184 9.34139L36.9109 8.57283C36.2694 8.41138 35.6022 8.27924 34.9295 8.17851L34.8111 8.96175C35.4562 9.05807 36.0958 9.18578 36.7184 9.34139ZM33.2596 8.78344L33.3216 7.99516C32.6624 7.94418 31.9875 7.91731 31.307 7.92183L31.3101 8.71373C31.9706 8.70713 32.6255 8.73193 33.2596 8.78344ZM29.7498 8.76458L29.7004 7.97492C29.0457 8.01643 28.3703 8.08465 27.7004 8.17528L27.8059 8.95749C28.4534 8.87234 29.1114 8.80699 29.7498 8.76458ZM26.2574 9.21076L26.1094 8.43197C25.4627 8.55463 24.8002 8.7014 24.1482 8.86797L24.341 9.6358C24.9793 9.47328 25.6232 9.33316 26.2574 9.21076ZM22.8311 10.0584L22.6011 9.30388C21.9609 9.49897 21.3187 9.71412 20.7005 9.94502L20.9766 10.6848C21.5799 10.4617 22.2046 10.2494 22.8311 10.0584Z" fill="#3A3E59" fill-opacity="0.3"/>
<path d="M19.3779 11.3279L19.0597 10.604C18.4796 10.8591 18.1542 11.0275 18.1443 11.0327L18.5108 11.7343C18.5108 11.7343 18.8226 11.57 19.3779 11.3279Z" fill="#3A3E59" fill-opacity="0.3"/>
<path fill-rule="evenodd" clip-rule="evenodd" d="M138.056 43.7783L109.173 50.7217L113.182 52.6167L138.056 43.7783Z" fill="url(#paint0_linear_456_2255)" fill-opacity="0.3"/>
<path fill-rule="evenodd" clip-rule="evenodd" d="M137.583 44.1035L120.716 63.7168L113.627 53.7746L114.814 53.1625L113.182 52.6171L137.583 44.1035Z" fill="url(#paint1_linear_456_2255)" fill-opacity="0.3"/>
<path fill-rule="evenodd" clip-rule="evenodd" d="M111.673 64.1518L137.583 44.1035L113.628 53.7746L111.673 64.1518Z" fill="url(#paint2_linear_456_2255)" fill-opacity="0.3"/>
<path opacity="0.5" d="M114.814 53.1623L137.583 44.1032L138.055 43.7784L113.105 52.5513L114.814 53.1623Z" fill="url(#paint3_linear_456_2255)" fill-opacity="0.3"/>
<path opacity="0.5" d="M136.662 45.1709L120.716 63.7159L117.669 59.5121L137.583 44.1026L136.662 45.1709Z" fill="url(#paint4_linear_456_2255)" fill-opacity="0.3"/>
<defs>
<linearGradient id="paint0_linear_456_2255" x1="126.241" y1="50.6795" x2="121.919" y2="43.2782" gradientUnits="userSpaceOnUse">
<stop stop-color="#3A3E59"/>
<stop offset="0.9944" stop-color="#9DA1BC"/>
</linearGradient>
<linearGradient id="paint1_linear_456_2255" x1="125.883" y1="52.8283" x2="121.868" y2="47.4425" gradientUnits="userSpaceOnUse">
<stop stop-color="#3A3E59"/>
<stop offset="0.9944" stop-color="#9DA1BC"/>
</linearGradient>
<linearGradient id="paint2_linear_456_2255" x1="124.1" y1="55.5537" x2="120.026" y2="50.7562" gradientUnits="userSpaceOnUse">
<stop stop-color="#3A3E59"/>
<stop offset="0.9944" stop-color="#9DA1BC"/>
</linearGradient>
<linearGradient id="paint3_linear_456_2255" x1="127.48" y1="50.9619" x2="123.681" y2="45.3685" gradientUnits="userSpaceOnUse">
<stop stop-color="#3A3E59"/>
<stop offset="0.9944" stop-color="#9DA1BC"/>
</linearGradient>
<linearGradient id="paint4_linear_456_2255" x1="127.547" y1="54.1416" x2="125.408" y2="52.0032" gradientUnits="userSpaceOnUse">
<stop stop-color="#3A3E59"/>
<stop offset="0.9944" stop-color="#9DA1BC"/>
</linearGradient>
</defs>
</svg>
